<svg width="36" height="36" viewBox="0 0 36 36" fill="none" xmlns="http://www.w3.org/2000/svg">
<path d="M8.99811 12.7467L11.433 17.0077C11.7098 17.4922 11.8482 17.7344 11.8482 18C11.8482 18.2656 11.7098 18.5078 11.433 18.9923L8.99811 23.2533C7.75981 25.4203 7.14066 26.5039 7.62348 27.0412C8.1063 27.5785 9.24962 27.0783 11.5362 26.0779L25.8119 19.8323C27.6074 19.0468 28.5051 18.654 28.5051 18C28.5051 17.346 27.6074 16.9532 25.8118 16.1677L11.5362 9.9221C9.24961 8.92171 8.1063 8.42151 7.62348 8.95883C7.14066 9.49615 7.75981 10.5797 8.99811 12.7467Z" fill="black" stroke="black"/>
</svg>
